solid OpenSCAD_Model
  facet normal -0.207912 -0.978148 0
    outer loop
      vertex 20.7295 1.4683 0
      vertex 26.8641 0.164343 40
      vertex 20.7295 1.4683 40
    endloop
  endfacet
  facet normal -0.207912 -0.978148 -0
    outer loop
      vertex 26.8641 0.164343 40
      vertex 20.7295 1.4683 0
      vertex 26.8641 0.164343 0
    endloop
  endfacet
  facet normal 0 0 -1
    outer loop
      vertex 133.136 0.164343 0
      vertex 160 30 0
      vertex 159.344 23.7626 0
    endloop
  endfacet
  facet normal -0 0 -1
    outer loop
      vertex 160 30 0
      vertex 133.136 0.164343 0
      vertex 160 90 0
    endloop
  endfacet
  facet normal 0 0 -1
    outer loop
      vertex 133.136 0.164343 0
      vertex 159.344 23.7626 0
      vertex 157.406 17.7979 0
    endloop
  endfacet
  facet normal 0 0 -1
    outer loop
      vertex 133.136 119.836 0
      vertex 160 90 0
      vertex 133.136 0.164343 0
    endloop
  endfacet
  facet normal 0 0 -1
    outer loop
      vertex 133.136 0.164343 0
      vertex 157.406 17.7979 0
      vertex 154.271 12.3664 0
    endloop
  endfacet
  facet normal 0 0 -1
    outer loop
      vertex 160 90 0
      vertex 133.136 119.836 0
      vertex 159.344 96.2374 0
    endloop
  endfacet
  facet normal 0 0 -1
    outer loop
      vertex 133.136 0.164343 0
      vertex 154.271 12.3664 0
      vertex 150.074 7.70566 0
    endloop
  endfacet
  facet normal 0 0 -1
    outer loop
      vertex 159.344 96.2374 0
      vertex 133.136 119.836 0
      vertex 157.406 102.202 0
    endloop
  endfacet
  facet normal 0 0 -1
    outer loop
      vertex 133.136 0.164343 0
      vertex 150.074 7.70566 0
      vertex 145 4.01924 0
    endloop
  endfacet
  facet normal 0 0 -1
    outer loop
      vertex 157.406 102.202 0
      vertex 133.136 119.836 0
      vertex 154.271 107.634 0
    endloop
  endfacet
  facet normal 0 0 -1
    outer loop
      vertex 133.136 0.164343 0
      vertex 145 4.01924 0
      vertex 139.271 1.4683 0
    endloop
  endfacet
  facet normal 0 0 -1
    outer loop
      vertex 154.271 107.634 0
      vertex 133.136 119.836 0
      vertex 150.074 112.294 0
    endloop
  endfacet
  facet normal 0 0 -1
    outer loop
      vertex 150.074 112.294 0
      vertex 133.136 119.836 0
      vertex 145 115.981 0
    endloop
  endfacet
  facet normal 0 0 -1
    outer loop
      vertex 145 115.981 0
      vertex 133.136 119.836 0
      vertex 139.271 118.532 0
    endloop
  endfacet
  facet normal 0 0 -1
    outer loop
      vertex 26.8641 0.164343 0
      vertex 133.136 119.836 0
      vertex 133.136 0.164343 0
    endloop
  endfacet
  facet normal 0 0 -1
    outer loop
      vertex 26.8641 0.164343 0
      vertex 26.8641 119.836 0
      vertex 133.136 119.836 0
    endloop
  endfacet
  facet normal 0 0 -1
    outer loop
      vertex 0 30 0
      vertex 26.8641 0.164343 0
      vertex 20.7295 1.4683 0
    endloop
  endfacet
  facet normal 0 0 -1
    outer loop
      vertex 26.8641 0.164343 0
      vertex 0 30 0
      vertex 26.8641 119.836 0
    endloop
  endfacet
  facet normal 0 0 -1
    outer loop
      vertex 26.8641 119.836 0
      vertex 0 90 0
      vertex 20.7295 118.532 0
    endloop
  endfacet
  facet normal 0 0 -1
    outer loop
      vertex 0 30 0
      vertex 20.7295 1.4683 0
      vertex 15 4.01924 0
    endloop
  endfacet
  facet normal 0 0 -1
    outer loop
      vertex 0 30 0
      vertex 15 4.01924 0
      vertex 9.92608 7.70566 0
    endloop
  endfacet
  facet normal 0 0 -1
    outer loop
      vertex 26.8641 119.836 0
      vertex 0 30 0
      vertex 0 90 0
    endloop
  endfacet
  facet normal 0 0 -1
    outer loop
      vertex 0 30 0
      vertex 9.92608 7.70566 0
      vertex 5.72949 12.3664 0
    endloop
  endfacet
  facet normal 0 0 -1
    outer loop
      vertex 20.7295 118.532 0
      vertex 0 90 0
      vertex 15 115.981 0
    endloop
  endfacet
  facet normal 0 0 -1
    outer loop
      vertex 0 30 0
      vertex 5.72949 12.3664 0
      vertex 2.59364 17.7979 0
    endloop
  endfacet
  facet normal 0 0 -1
    outer loop
      vertex 15 115.981 0
      vertex 0 90 0
      vertex 9.92608 112.294 0
    endloop
  endfacet
  facet normal 0 0 -1
    outer loop
      vertex 0 30 0
      vertex 2.59364 17.7979 0
      vertex 0.655572 23.7626 0
    endloop
  endfacet
  facet normal 0 0 -1
    outer loop
      vertex 9.92608 112.294 0
      vertex 0 90 0
      vertex 5.72949 107.634 0
    endloop
  endfacet
  facet normal 0 0 -1
    outer loop
      vertex 5.72949 107.634 0
      vertex 0 90 0
      vertex 2.59364 102.202 0
    endloop
  endfacet
  facet normal 0 0 -1
    outer loop
      vertex 2.59364 102.202 0
      vertex 0 90 0
      vertex 0.655572 96.2374 0
    endloop
  endfacet
  facet normal -0.207912 0.978148 0
    outer loop
      vertex 26.8641 119.836 0
      vertex 20.7295 118.532 80
      vertex 26.8641 119.836 80
    endloop
  endfacet
  facet normal -0.207912 0.978148 0
    outer loop
      vertex 20.7295 118.532 80
      vertex 26.8641 119.836 0
      vertex 20.7295 118.532 0
    endloop
  endfacet
  facet normal 0 -1 0
    outer loop
      vertex 26.8641 0.164343 0
      vertex 133.136 0.164343 40
      vertex 26.8641 0.164343 40
    endloop
  endfacet
  facet normal 0 -1 -0
    outer loop
      vertex 133.136 0.164343 40
      vertex 26.8641 0.164343 0
      vertex 133.136 0.164343 0
    endloop
  endfacet
  facet normal 0 0 1
    outer loop
      vertex 139.271 118.532 80
      vertex 145 105 80
      vertex 145 115.981 80
    endloop
  endfacet
  facet normal 0 0 1
    outer loop
      vertex 133.136 119.836 80
      vertex 145 105 80
      vertex 139.271 118.532 80
    endloop
  endfacet
  facet normal -0 0 1
    outer loop
      vertex 26.8641 119.836 80
      vertex 145 105 80
      vertex 133.136 119.836 80
    endloop
  endfacet
  facet normal 0 0 1
    outer loop
      vertex 15 105 80
      vertex 26.8641 119.836 80
      vertex 20.7295 118.532 80
    endloop
  endfacet
  facet normal 0 0 1
    outer loop
      vertex 15 105 80
      vertex 20.7295 118.532 80
      vertex 15 115.981 80
    endloop
  endfacet
  facet normal 0 0 1
    outer loop
      vertex 26.8641 119.836 80
      vertex 15 105 80
      vertex 145 105 80
    endloop
  endfacet
  facet normal -0 0 1
    outer loop
      vertex 9.92608 112.294 80
      vertex 15 105 80
      vertex 15 115.981 80
    endloop
  endfacet
  facet normal -0 0 1
    outer loop
      vertex 5.72949 107.634 80
      vertex 15 105 80
      vertex 9.92608 112.294 80
    endloop
  endfacet
  facet normal 0 0 1
    outer loop
      vertex 2.59364 102.202 80
      vertex 15 105 80
      vertex 5.72949 107.634 80
    endloop
  endfacet
  facet normal 0 0 1
    outer loop
      vertex 15 105 80
      vertex 0 90 80
      vertex 15 15 80
    endloop
  endfacet
  facet normal 0 0 1
    outer loop
      vertex 0.655572 96.2374 80
      vertex 15 105 80
      vertex 2.59364 102.202 80
    endloop
  endfacet
  facet normal 0 0 1
    outer loop
      vertex 15 15 80
      vertex 0 90 80
      vertex 0 30 80
    endloop
  endfacet
  facet normal 0 0 1
    outer loop
      vertex 15 105 80
      vertex 0.655572 96.2374 80
      vertex 0 90 80
    endloop
  endfacet
  facet normal -0 -0 1
    outer loop
      vertex 0.655572 23.7626 80
      vertex 15 15 80
      vertex 0 30 80
    endloop
  endfacet
  facet normal -0 -0 1
    outer loop
      vertex 2.59364 17.7979 80
      vertex 15 15 80
      vertex 0.655572 23.7626 80
    endloop
  endfacet
  facet normal 0 0 1
    outer loop
      vertex 15 15 80
      vertex 2.59364 17.7979 80
      vertex 4.209 15 80
    endloop
  endfacet
  facet normal 0 0 1
    outer loop
      vertex 145 105 80
      vertex 160 90 80
      vertex 159.344 96.2374 80
    endloop
  endfacet
  facet normal 0 0 1
    outer loop
      vertex 160 90 80
      vertex 145 105 80
      vertex 160 30 80
    endloop
  endfacet
  facet normal 0 0 1
    outer loop
      vertex 145 105 80
      vertex 159.344 96.2374 80
      vertex 157.406 102.202 80
    endloop
  endfacet
  facet normal 0 0 1
    outer loop
      vertex 145 15 80
      vertex 160 30 80
      vertex 145 105 80
    endloop
  endfacet
  facet normal 0 0 1
    outer loop
      vertex 159.344 23.7626 80
      vertex 145 15 80
      vertex 157.406 17.7979 80
    endloop
  endfacet
  facet normal -0 0 1
    outer loop
      vertex 145 105 80
      vertex 157.406 102.202 80
      vertex 154.271 107.634 80
    endloop
  endfacet
  facet normal 0 0 1
    outer loop
      vertex 145 105 80
      vertex 154.271 107.634 80
      vertex 150.074 112.294 80
    endloop
  endfacet
  facet normal 0 0 1
    outer loop
      vertex 145 105 80
      vertex 150.074 112.294 80
      vertex 145 115.981 80
    endloop
  endfacet
  facet normal 0 0 1
    outer loop
      vertex 160 30 80
      vertex 145 15 80
      vertex 159.344 23.7626 80
    endloop
  endfacet
  facet normal 0 0 1
    outer loop
      vertex 157.406 17.7979 80
      vertex 145 15 80
      vertex 155.791 15 80
    endloop
  endfacet
  facet normal -0.951057 0.309017 0
    outer loop
      vertex 0.655572 96.2374 0
      vertex 2.59364 102.202 80
      vertex 2.59364 102.202 0
    endloop
  endfacet
  facet normal -0.951057 0.309017 0
    outer loop
      vertex 2.59364 102.202 80
      vertex 0.655572 96.2374 0
      vertex 0.655572 96.2374 80
    endloop
  endfacet
  facet normal -1 0 0
    outer loop
      vertex 0 30 0
      vertex 0 90 80
      vertex 0 90 0
    endloop
  endfacet
  facet normal -1 -0 0
    outer loop
      vertex 0 90 80
      vertex 0 30 0
      vertex 0 30 80
    endloop
  endfacet
  facet normal -0.994522 0.104528 0
    outer loop
      vertex 0 90 0
      vertex 0.655572 96.2374 80
      vertex 0.655572 96.2374 0
    endloop
  endfacet
  facet normal -0.994522 0.104528 0
    outer loop
      vertex 0.655572 96.2374 80
      vertex 0 90 0
      vertex 0 90 80
    endloop
  endfacet
  facet normal -0.994522 -0.104528 0
    outer loop
      vertex 0.655572 23.7626 0
      vertex 0 30 80
      vertex 0 30 0
    endloop
  endfacet
  facet normal -0.994522 -0.104528 0
    outer loop
      vertex 0 30 80
      vertex 0.655572 23.7626 0
      vertex 0.655572 23.7626 80
    endloop
  endfacet
  facet normal 0 1 0
    outer loop
      vertex 133.136 119.836 5
      vertex 133.136 119.836 0
      vertex 85 119.836 5
    endloop
  endfacet
  facet normal 0 1 0
    outer loop
      vertex 85 119.836 30
      vertex 133.136 119.836 80
      vertex 133.136 119.836 30
    endloop
  endfacet
  facet normal 0 1 0
    outer loop
      vertex 133.136 119.836 80
      vertex 85 119.836 30
      vertex 26.8641 119.836 80
    endloop
  endfacet
  facet normal 0 1 0
    outer loop
      vertex 26.8641 119.836 0
      vertex 85 119.836 30
      vertex 85 119.836 5
    endloop
  endfacet
  facet normal 0 1 0
    outer loop
      vertex 85 119.836 30
      vertex 26.8641 119.836 0
      vertex 26.8641 119.836 80
    endloop
  endfacet
  facet normal 0 1 0
    outer loop
      vertex 26.8641 119.836 0
      vertex 85 119.836 5
      vertex 133.136 119.836 0
    endloop
  endfacet
  facet normal 0.207912 -0.978148 0
    outer loop
      vertex 133.136 0.164343 0
      vertex 139.271 1.4683 40
      vertex 133.136 0.164343 40
    endloop
  endfacet
  facet normal 0.207912 -0.978148 0
    outer loop
      vertex 139.271 1.4683 40
      vertex 133.136 0.164343 0
      vertex 139.271 1.4683 0
    endloop
  endfacet
  facet normal 0.406737 -0.913545 0
    outer loop
      vertex 139.271 1.4683 0
      vertex 145 4.01924 40
      vertex 139.271 1.4683 40
    endloop
  endfacet
  facet normal 0.406737 -0.913545 0
    outer loop
      vertex 145 4.01924 40
      vertex 139.271 1.4683 0
      vertex 145 4.01924 0
    endloop
  endfacet
  facet normal -0.587785 -0.809017 0
    outer loop
      vertex 9.92608 7.70566 0
      vertex 15 4.01924 40
      vertex 9.92608 7.70566 40
    endloop
  endfacet
  facet normal -0.587785 -0.809017 -0
    outer loop
      vertex 15 4.01924 40
      vertex 9.92608 7.70566 0
      vertex 15 4.01924 0
    endloop
  endfacet
  facet normal -0.743145 -0.669131 0
    outer loop
      vertex 9.92608 7.70566 0
      vertex 5.72949 12.3664 40
      vertex 5.72949 12.3664 0
    endloop
  endfacet
  facet normal -0.743145 -0.669131 0
    outer loop
      vertex 5.72949 12.3664 40
      vertex 9.92608 7.70566 0
      vertex 9.92608 7.70566 40
    endloop
  endfacet
  facet normal -0.951057 -0.309017 0
    outer loop
      vertex 2.59364 17.7979 0
      vertex 0.655572 23.7626 80
      vertex 0.655572 23.7626 0
    endloop
  endfacet
  facet normal -0.951057 -0.309017 0
    outer loop
      vertex 0.655572 23.7626 80
      vertex 2.59364 17.7979 0
      vertex 2.59364 17.7979 80
    endloop
  endfacet
  facet normal -0.587785 0.809017 0
    outer loop
      vertex 15 115.981 0
      vertex 9.92608 112.294 80
      vertex 15 115.981 80
    endloop
  endfacet
  facet normal -0.587785 0.809017 0
    outer loop
      vertex 9.92608 112.294 80
      vertex 15 115.981 0
      vertex 9.92608 112.294 0
    endloop
  endfacet
  facet normal 0.951057 0.309017 0
    outer loop
      vertex 159.344 96.2374 80
      vertex 157.406 102.202 0
      vertex 157.406 102.202 80
    endloop
  endfacet
  facet normal 0.951057 0.309017 0
    outer loop
      vertex 157.406 102.202 0
      vertex 159.344 96.2374 80
      vertex 159.344 96.2374 0
    endloop
  endfacet
  facet normal -0.406737 -0.913545 0
    outer loop
      vertex 15 4.01924 0
      vertex 20.7295 1.4683 40
      vertex 15 4.01924 40
    endloop
  endfacet
  facet normal -0.406737 -0.913545 -0
    outer loop
      vertex 20.7295 1.4683 40
      vertex 15 4.01924 0
      vertex 20.7295 1.4683 0
    endloop
  endfacet
  facet normal -0.866025 -0.5 0
    outer loop
      vertex 2.59364 17.7979 0
      vertex 4.209 15 40
      vertex 2.59364 17.7979 80
    endloop
  endfacet
  facet normal -0.866025 -0.5 -4.51431e-009
    outer loop
      vertex 5.72949 12.3664 0
      vertex 4.209 15 40
      vertex 2.59364 17.7979 0
    endloop
  endfacet
  facet normal -0.866025 -0.5 0
    outer loop
      vertex 4.209 15 40
      vertex 5.72949 12.3664 0
      vertex 5.72949 12.3664 40
    endloop
  endfacet
  facet normal -0.866025 -0.5 0
    outer loop
      vertex 2.59364 17.7979 80
      vertex 4.209 15 40
      vertex 4.209 15 80
    endloop
  endfacet
  facet normal -0.743144 0.669131 0
    outer loop
      vertex 5.72949 107.634 0
      vertex 9.92608 112.294 80
      vertex 9.92608 112.294 0
    endloop
  endfacet
  facet normal -0.743144 0.669131 0
    outer loop
      vertex 9.92608 112.294 80
      vertex 5.72949 107.634 0
      vertex 5.72949 107.634 80
    endloop
  endfacet
  facet normal -0.406737 0.913545 0
    outer loop
      vertex 20.7295 118.532 0
      vertex 15 115.981 80
      vertex 20.7295 118.532 80
    endloop
  endfacet
  facet normal -0.406737 0.913545 0
    outer loop
      vertex 15 115.981 80
      vertex 20.7295 118.532 0
      vertex 15 115.981 0
    endloop
  endfacet
  facet normal 0.207912 0.978148 -0
    outer loop
      vertex 139.271 118.532 30
      vertex 133.136 119.836 80
      vertex 139.271 118.532 80
    endloop
  endfacet
  facet normal 0.207912 0.978148 0
    outer loop
      vertex 133.136 119.836 80
      vertex 139.271 118.532 30
      vertex 133.136 119.836 30
    endloop
  endfacet
  facet normal 0.207912 0.978148 -0
    outer loop
      vertex 139.271 118.532 0
      vertex 133.136 119.836 5
      vertex 139.271 118.532 5
    endloop
  endfacet
  facet normal 0.207912 0.978148 0
    outer loop
      vertex 133.136 119.836 5
      vertex 139.271 118.532 0
      vertex 133.136 119.836 0
    endloop
  endfacet
  facet normal 0.406737 0.913545 -0
    outer loop
      vertex 145 115.981 30
      vertex 139.271 118.532 80
      vertex 145 115.981 80
    endloop
  endfacet
  facet normal 0.406737 0.913545 0
    outer loop
      vertex 139.271 118.532 80
      vertex 145 115.981 30
      vertex 139.271 118.532 30
    endloop
  endfacet
  facet normal 0.406737 0.913545 -0
    outer loop
      vertex 145 115.981 0
      vertex 139.271 118.532 5
      vertex 145 115.981 5
    endloop
  endfacet
  facet normal 0.406737 0.913545 0
    outer loop
      vertex 139.271 118.532 5
      vertex 145 115.981 0
      vertex 139.271 118.532 0
    endloop
  endfacet
  facet normal 0.951057 -0.309017 0
    outer loop
      vertex 157.406 17.7979 5
      vertex 159.344 23.7626 0
      vertex 159.344 23.7626 5
    endloop
  endfacet
  facet normal 0.951057 -0.309017 0
    outer loop
      vertex 159.344 23.7626 0
      vertex 157.406 17.7979 5
      vertex 157.406 17.7979 0
    endloop
  endfacet
  facet normal 0.951057 -0.309017 0
    outer loop
      vertex 157.406 17.7979 80
      vertex 159.344 23.7626 20
      vertex 159.344 23.7626 80
    endloop
  endfacet
  facet normal 0.951057 -0.309017 0
    outer loop
      vertex 159.344 23.7626 20
      vertex 157.406 17.7979 80
      vertex 157.406 17.7979 20
    endloop
  endfacet
  facet normal 1 0 0
    outer loop
      vertex 160 90 80
      vertex 160 75 20
      vertex 160 90 0
    endloop
  endfacet
  facet normal 1 -0 0
    outer loop
      vertex 160 30 80
      vertex 160 75 20
      vertex 160 90 80
    endloop
  endfacet
  facet normal 1 0 0
    outer loop
      vertex 160 75 20
      vertex 160 30 80
      vertex 160 30 20
    endloop
  endfacet
  facet normal 1 -0 0
    outer loop
      vertex 160 75 5
      vertex 160 90 0
      vertex 160 75 20
    endloop
  endfacet
  facet normal 1 0 0
    outer loop
      vertex 160 30 0
      vertex 160 75 5
      vertex 160 30 5
    endloop
  endfacet
  facet normal 1 0 0
    outer loop
      vertex 160 75 5
      vertex 160 30 0
      vertex 160 90 0
    endloop
  endfacet
  facet normal -0.866025 0.5 0
    outer loop
      vertex 2.59364 102.202 0
      vertex 5.72949 107.634 80
      vertex 5.72949 107.634 0
    endloop
  endfacet
  facet normal -0.866025 0.5 0
    outer loop
      vertex 5.72949 107.634 80
      vertex 2.59364 102.202 0
      vertex 2.59364 102.202 80
    endloop
  endfacet
  facet normal 0.994522 -0.10453 0
    outer loop
      vertex 159.344 23.7626 80
      vertex 160 30 20
      vertex 160 30 80
    endloop
  endfacet
  facet normal 0.994522 -0.10453 0
    outer loop
      vertex 160 30 20
      vertex 159.344 23.7626 80
      vertex 159.344 23.7626 20
    endloop
  endfacet
  facet normal 0.994522 -0.10453 0
    outer loop
      vertex 159.344 23.7626 5
      vertex 160 30 0
      vertex 160 30 5
    endloop
  endfacet
  facet normal 0.994522 -0.10453 0
    outer loop
      vertex 160 30 0
      vertex 159.344 23.7626 5
      vertex 159.344 23.7626 0
    endloop
  endfacet
  facet normal 0.743144 0.669131 0
    outer loop
      vertex 154.271 107.634 80
      vertex 150.074 112.294 0
      vertex 150.074 112.294 80
    endloop
  endfacet
  facet normal 0.743144 0.669131 0
    outer loop
      vertex 150.074 112.294 0
      vertex 154.271 107.634 80
      vertex 154.271 107.634 0
    endloop
  endfacet
  facet normal 0.866026 0.499999 0
    outer loop
      vertex 157.406 102.202 80
      vertex 154.271 107.634 0
      vertex 154.271 107.634 80
    endloop
  endfacet
  facet normal 0.866026 0.499999 0
    outer loop
      vertex 154.271 107.634 0
      vertex 157.406 102.202 80
      vertex 157.406 102.202 0
    endloop
  endfacet
  facet normal 0.587786 -0.809017 0
    outer loop
      vertex 145 4.01924 0
      vertex 150.074 7.70566 40
      vertex 145 4.01924 40
    endloop
  endfacet
  facet normal 0.587786 -0.809017 0
    outer loop
      vertex 150.074 7.70566 40
      vertex 145 4.01924 0
      vertex 150.074 7.70566 0
    endloop
  endfacet
  facet normal 0.587786 0.809017 0
    outer loop
      vertex 150.074 112.294 80
      vertex 145 115.981 30
      vertex 145 115.981 80
    endloop
  endfacet
  facet normal 0.587786 0.809017 -0
    outer loop
      vertex 150.074 112.294 0
      vertex 145 115.981 30
      vertex 150.074 112.294 80
    endloop
  endfacet
  facet normal 0.587786 0.809017 0
    outer loop
      vertex 145 115.981 30
      vertex 150.074 112.294 0
      vertex 145 115.981 5
    endloop
  endfacet
  facet normal 0.587786 0.809017 0
    outer loop
      vertex 145 115.981 5
      vertex 150.074 112.294 0
      vertex 145 115.981 0
    endloop
  endfacet
  facet normal 0.866027 -0.499997 0
    outer loop
      vertex 155.791 15 40
      vertex 157.406 17.7979 80
      vertex 155.791 15 80
    endloop
  endfacet
  facet normal 0.866027 -0.499997 0
    outer loop
      vertex 157.406 17.7979 80
      vertex 155.791 15 40
      vertex 157.406 17.7979 20
    endloop
  endfacet
  facet normal 0.866027 -0.499997 0
    outer loop
      vertex 155.791 15 40
      vertex 155.791 15 20
      vertex 157.406 17.7979 20
    endloop
  endfacet
  facet normal 0.866024 -0.500002 0
    outer loop
      vertex 154.271 12.3664 40
      vertex 155.791 15 20
      vertex 155.791 15 40
    endloop
  endfacet
  facet normal 0.866024 -0.500002 0
    outer loop
      vertex 154.271 12.3664 0
      vertex 155.791 15 20
      vertex 154.271 12.3664 40
    endloop
  endfacet
  facet normal 0.866027 -0.499997 0
    outer loop
      vertex 155.791 15 5
      vertex 157.406 17.7979 0
      vertex 157.406 17.7979 5
    endloop
  endfacet
  facet normal 0.866026 -0.499999 -1.67543e-006
    outer loop
      vertex 155.791 15 5
      vertex 154.271 12.3664 0
      vertex 157.406 17.7979 0
    endloop
  endfacet
  facet normal 0.866024 -0.500002 0
    outer loop
      vertex 155.791 15 20
      vertex 154.271 12.3664 0
      vertex 155.791 15 5
    endloop
  endfacet
  facet normal 0.743145 -0.669131 0
    outer loop
      vertex 150.074 7.70566 40
      vertex 154.271 12.3664 0
      vertex 154.271 12.3664 40
    endloop
  endfacet
  facet normal 0.743145 -0.669131 0
    outer loop
      vertex 154.271 12.3664 0
      vertex 150.074 7.70566 40
      vertex 150.074 7.70566 0
    endloop
  endfacet
  facet normal 0.994522 0.10453 0
    outer loop
      vertex 160 90 80
      vertex 159.344 96.2374 0
      vertex 159.344 96.2374 80
    endloop
  endfacet
  facet normal 0.994522 0.10453 0
    outer loop
      vertex 159.344 96.2374 0
      vertex 160 90 80
      vertex 160 90 0
    endloop
  endfacet
  facet normal 1 0 0
    outer loop
      vertex 15 15 40
      vertex 15 105 70
      vertex 15 15 70
    endloop
  endfacet
  facet normal 1 0 0
    outer loop
      vertex 15 105 70
      vertex 15 15 40
      vertex 15 105 5
    endloop
  endfacet
  facet normal 1 0 0
    outer loop
      vertex 15 105 5
      vertex 15 15 40
      vertex 15 15 5
    endloop
  endfacet
  facet normal 1 -0 0
    outer loop
      vertex 15 15 80
      vertex 15 105 76
      vertex 15 105 80
    endloop
  endfacet
  facet normal 1 0 0
    outer loop
      vertex 15 105 76
      vertex 15 15 80
      vertex 15 15 76
    endloop
  endfacet
  facet normal -1 0 0
    outer loop
      vertex 145 15 76
      vertex 145 105 80
      vertex 145 105 76
    endloop
  endfacet
  facet normal -1 -0 0
    outer loop
      vertex 145 105 80
      vertex 145 15 76
      vertex 145 15 80
    endloop
  endfacet
  facet normal -1 0 0
    outer loop
      vertex 145 115.981 5
      vertex 145 105 30
      vertex 145 115.981 30
    endloop
  endfacet
  facet normal -1 0 0
    outer loop
      vertex 145 75 5
      vertex 145 105 30
      vertex 145 115.981 5
    endloop
  endfacet
  facet normal -1 0 0
    outer loop
      vertex 145 75 20
      vertex 145 105 30
      vertex 145 75 5
    endloop
  endfacet
  facet normal -1 -0 0
    outer loop
      vertex 145 105 30
      vertex 145 75 20
      vertex 145 105 70
    endloop
  endfacet
  facet normal -1 0 0
    outer loop
      vertex 145 15 40
      vertex 145 75 20
      vertex 145 15 20
    endloop
  endfacet
  facet normal -1 0 0
    outer loop
      vertex 145 15 70
      vertex 145 75 20
      vertex 145 15 40
    endloop
  endfacet
  facet normal -1 0 0
    outer loop
      vertex 145 75 20
      vertex 145 15 70
      vertex 145 105 70
    endloop
  endfacet
  facet normal 0 0 1
    outer loop
      vertex 145 115.981 5
      vertex 139.271 118.532 5
      vertex 145 75 5
    endloop
  endfacet
  facet normal -0 0 1
    outer loop
      vertex 145 75 5
      vertex 160 30 5
      vertex 160 75 5
    endloop
  endfacet
  facet normal 0 -0 1
    outer loop
      vertex 155.791 15 5
      vertex 160 30 5
      vertex 145 75 5
    endloop
  endfacet
  facet normal 0 0 1
    outer loop
      vertex 160 30 5
      vertex 155.791 15 5
      vertex 159.344 23.7626 5
    endloop
  endfacet
  facet normal 0 0 1
    outer loop
      vertex 159.344 23.7626 5
      vertex 155.791 15 5
      vertex 157.406 17.7979 5
    endloop
  endfacet
  facet normal 0 0 1
    outer loop
      vertex 133.136 119.836 5
      vertex 145 75 5
      vertex 139.271 118.532 5
    endloop
  endfacet
  facet normal -0 0 1
    outer loop
      vertex 85 105 5
      vertex 145 75 5
      vertex 133.136 119.836 5
    endloop
  endfacet
  facet normal 0 0 1
    outer loop
      vertex 85 105 5
      vertex 133.136 119.836 5
      vertex 85 119.836 5
    endloop
  endfacet
  facet normal 0 0 1
    outer loop
      vertex 145 75 5
      vertex 85 105 5
      vertex 155.791 15 5
    endloop
  endfacet
  facet normal 0 0 1
    outer loop
      vertex 15 15 5
      vertex 85 105 5
      vertex 15 105 5
    endloop
  endfacet
  facet normal 0 0 1
    outer loop
      vertex 85 105 5
      vertex 15 15 5
      vertex 155.791 15 5
    endloop
  endfacet
  facet normal 0 1 0
    outer loop
      vertex 155.791 15 20
      vertex 155.791 15 5
      vertex 145 15 20
    endloop
  endfacet
  facet normal 0 1 -0
    outer loop
      vertex 145 15 20
      vertex 15 15 40
      vertex 145 15 40
    endloop
  endfacet
  facet normal 0 1 0
    outer loop
      vertex 15 15 5
      vertex 145 15 20
      vertex 155.791 15 5
    endloop
  endfacet
  facet normal 0 1 0
    outer loop
      vertex 145 15 20
      vertex 15 15 5
      vertex 15 15 40
    endloop
  endfacet
  facet normal 0 -1 0
    outer loop
      vertex 4.209 15 80
      vertex 9.5 15 76
      vertex 15 15 80
    endloop
  endfacet
  facet normal 0 -1 0
    outer loop
      vertex 4.209 15 80
      vertex 9.5 15 70
      vertex 9.5 15 76
    endloop
  endfacet
  facet normal 0 -1 0
    outer loop
      vertex 4.209 15 40
      vertex 9.5 15 70
      vertex 4.209 15 80
    endloop
  endfacet
  facet normal 0 -1 0
    outer loop
      vertex 15 15 40
      vertex 9.5 15 70
      vertex 4.209 15 40
    endloop
  endfacet
  facet normal 0 -1 0
    outer loop
      vertex 9.5 15 70
      vertex 15 15 40
      vertex 15 15 70
    endloop
  endfacet
  facet normal 0 -1 -0
    outer loop
      vertex 15 15 80
      vertex 9.5 15 76
      vertex 15 15 76
    endloop
  endfacet
  facet normal 0 -1 0
    outer loop
      vertex 145 15 70
      vertex 145 15 40
      vertex 151.5 15 70
    endloop
  endfacet
  facet normal 0 -1 0
    outer loop
      vertex 151.5 15 76
      vertex 145 15 80
      vertex 145 15 76
    endloop
  endfacet
  facet normal 0 -1 0
    outer loop
      vertex 145 15 80
      vertex 151.5 15 76
      vertex 155.791 15 80
    endloop
  endfacet
  facet normal 0 -1 0
    outer loop
      vertex 151.5 15 70
      vertex 155.791 15 80
      vertex 151.5 15 76
    endloop
  endfacet
  facet normal 0 -1 0
    outer loop
      vertex 155.791 15 40
      vertex 151.5 15 70
      vertex 145 15 40
    endloop
  endfacet
  facet normal 0 -1 0
    outer loop
      vertex 151.5 15 70
      vertex 155.791 15 40
      vertex 155.791 15 80
    endloop
  endfacet
  facet normal 0 -1 0
    outer loop
      vertex 15 105 70
      vertex 85 105 30
      vertex 145 105 70
    endloop
  endfacet
  facet normal 0 -1 0
    outer loop
      vertex 15 105 5
      vertex 85 105 30
      vertex 15 105 70
    endloop
  endfacet
  facet normal 0 -1 -0
    outer loop
      vertex 85 105 30
      vertex 15 105 5
      vertex 85 105 5
    endloop
  endfacet
  facet normal 0 -1 -0
    outer loop
      vertex 145 105 70
      vertex 85 105 30
      vertex 145 105 30
    endloop
  endfacet
  facet normal 0 -1 0
    outer loop
      vertex 15 105 76
      vertex 145 105 80
      vertex 15 105 80
    endloop
  endfacet
  facet normal 0 -1 -0
    outer loop
      vertex 145 105 80
      vertex 15 105 76
      vertex 145 105 76
    endloop
  endfacet
  facet normal 0 0 -1
    outer loop
      vertex 145 15 20
      vertex 160 30 20
      vertex 159.344 23.7626 20
    endloop
  endfacet
  facet normal 0 0 -1
    outer loop
      vertex 145 15 20
      vertex 159.344 23.7626 20
      vertex 157.406 17.7979 20
    endloop
  endfacet
  facet normal 0 0 -1
    outer loop
      vertex 145 15 20
      vertex 157.406 17.7979 20
      vertex 155.791 15 20
    endloop
  endfacet
  facet normal -0 0 -1
    outer loop
      vertex 160 30 20
      vertex 145 15 20
      vertex 145 75 20
    endloop
  endfacet
  facet normal 0 0 -1
    outer loop
      vertex 160 30 20
      vertex 145 75 20
      vertex 160 75 20
    endloop
  endfacet
  facet normal 0 -1 0
    outer loop
      vertex 145 75 5
      vertex 160 75 20
      vertex 145 75 20
    endloop
  endfacet
  facet normal 0 -1 -0
    outer loop
      vertex 160 75 20
      vertex 145 75 5
      vertex 160 75 5
    endloop
  endfacet
  facet normal 1 -0 0
    outer loop
      vertex 85 105 30
      vertex 85 119.836 5
      vertex 85 119.836 30
    endloop
  endfacet
  facet normal 1 0 0
    outer loop
      vertex 85 119.836 5
      vertex 85 105 30
      vertex 85 105 5
    endloop
  endfacet
  facet normal 0 0 -1
    outer loop
      vertex 145 105 30
      vertex 139.271 118.532 30
      vertex 145 115.981 30
    endloop
  endfacet
  facet normal 0 0 -1
    outer loop
      vertex 145 105 30
      vertex 133.136 119.836 30
      vertex 139.271 118.532 30
    endloop
  endfacet
  facet normal 0 0 -1
    outer loop
      vertex 85 105 30
      vertex 133.136 119.836 30
      vertex 145 105 30
    endloop
  endfacet
  facet normal -0 0 -1
    outer loop
      vertex 133.136 119.836 30
      vertex 85 105 30
      vertex 85 119.836 30
    endloop
  endfacet
  facet normal 1 -0 0
    outer loop
      vertex 9.5 15 76
      vertex 9.5 110 70
      vertex 9.5 110 76
    endloop
  endfacet
  facet normal 1 0 0
    outer loop
      vertex 9.5 110 70
      vertex 9.5 15 76
      vertex 9.5 15 70
    endloop
  endfacet
  facet normal 0 0 -1
    outer loop
      vertex 15 15 76
      vertex 9.5 15 76
      vertex 15 105 76
    endloop
  endfacet
  facet normal 0 0 -1
    outer loop
      vertex 145 105 76
      vertex 151.5 15 76
      vertex 145 15 76
    endloop
  endfacet
  facet normal 0 0 -1
    outer loop
      vertex 151.5 15 76
      vertex 145 105 76
      vertex 151.5 110 76
    endloop
  endfacet
  facet normal 0 0 -1
    outer loop
      vertex 9.5 110 76
      vertex 145 105 76
      vertex 15 105 76
    endloop
  endfacet
  facet normal 0 0 -1
    outer loop
      vertex 145 105 76
      vertex 9.5 110 76
      vertex 151.5 110 76
    endloop
  endfacet
  facet normal 0 0 -1
    outer loop
      vertex 9.5 110 76
      vertex 15 105 76
      vertex 9.5 15 76
    endloop
  endfacet
  facet normal -1 0 0
    outer loop
      vertex 151.5 15 70
      vertex 151.5 110 76
      vertex 151.5 110 70
    endloop
  endfacet
  facet normal -1 -0 0
    outer loop
      vertex 151.5 110 76
      vertex 151.5 15 70
      vertex 151.5 15 76
    endloop
  endfacet
  facet normal 0 -1 0
    outer loop
      vertex 9.5 110 70
      vertex 151.5 110 76
      vertex 9.5 110 76
    endloop
  endfacet
  facet normal 0 -1 -0
    outer loop
      vertex 151.5 110 76
      vertex 9.5 110 70
      vertex 151.5 110 70
    endloop
  endfacet
  facet normal 0 0 1
    outer loop
      vertex 151.5 110 70
      vertex 145 105 70
      vertex 151.5 15 70
    endloop
  endfacet
  facet normal -0 0 1
    outer loop
      vertex 9.5 110 70
      vertex 145 105 70
      vertex 151.5 110 70
    endloop
  endfacet
  facet normal 0 0 1
    outer loop
      vertex 145 105 70
      vertex 9.5 110 70
      vertex 15 105 70
    endloop
  endfacet
  facet normal 0 0 1
    outer loop
      vertex 9.5 15 70
      vertex 15 105 70
      vertex 9.5 110 70
    endloop
  endfacet
  facet normal 0 0 1
    outer loop
      vertex 15 105 70
      vertex 9.5 15 70
      vertex 15 15 70
    endloop
  endfacet
  facet normal 0 0 1
    outer loop
      vertex 151.5 15 70
      vertex 145 105 70
      vertex 145 15 70
    endloop
  endfacet
  facet normal -0 0 1
    outer loop
      vertex 145 15 40
      vertex 154.271 12.3664 40
      vertex 155.791 15 40
    endloop
  endfacet
  facet normal 0 0 1
    outer loop
      vertex 154.271 12.3664 40
      vertex 145 15 40
      vertex 150.074 7.70566 40
    endloop
  endfacet
  facet normal 0 0 1
    outer loop
      vertex 145 15 40
      vertex 145 4.01924 40
      vertex 150.074 7.70566 40
    endloop
  endfacet
  facet normal 0 0 1
    outer loop
      vertex 145 15 40
      vertex 139.271 1.4683 40
      vertex 145 4.01924 40
    endloop
  endfacet
  facet normal 0 0 1
    outer loop
      vertex 145 15 40
      vertex 133.136 0.164343 40
      vertex 139.271 1.4683 40
    endloop
  endfacet
  facet normal 0 0 1
    outer loop
      vertex 145 15 40
      vertex 26.8641 0.164343 40
      vertex 133.136 0.164343 40
    endloop
  endfacet
  facet normal -0 0 1
    outer loop
      vertex 15 15 40
      vertex 26.8641 0.164343 40
      vertex 145 15 40
    endloop
  endfacet
  facet normal 0 0 1
    outer loop
      vertex 26.8641 0.164343 40
      vertex 15 15 40
      vertex 20.7295 1.4683 40
    endloop
  endfacet
  facet normal 0 0 1
    outer loop
      vertex 15 15 40
      vertex 15 4.01924 40
      vertex 20.7295 1.4683 40
    endloop
  endfacet
  facet normal 0 0 1
    outer loop
      vertex 15 15 40
      vertex 9.92608 7.70566 40
      vertex 15 4.01924 40
    endloop
  endfacet
  facet normal 0 0 1
    outer loop
      vertex 15 15 40
      vertex 5.72949 12.3664 40
      vertex 9.92608 7.70566 40
    endloop
  endfacet
  facet normal 0 -0 1
    outer loop
      vertex 5.72949 12.3664 40
      vertex 15 15 40
      vertex 4.209 15 40
    endloop
  endfacet
endsolid OpenSCAD_Model
